<svg xmlns="http://www.w3.org/2000/svg" viewBox="0 0 100 100" width="500" height="500" class="illustration"><defs><style>.cls-1{fill:#ffd44d;stroke-miterlimit:10;}.cls-1,.cls-2{stroke:#231f20;stroke-width:1.5px;}.cls-2{fill:#545454;stroke-linejoin:bevel;}.cls-3{fill:#231f20;}</style></defs><g id="Layer_2" data-name="Layer 2"><path class="cls-1" d="M22,73.29s7.81,4.38,12.61,4.38H58.14c5.66,0,19.39-8.32,22.46-12.47,2.94-4-1.95-6.45-5.35-4.22-3.89,2.56-6.38,6.62-18.41,6.62h-12L23,52.51l-1,.33Z"></path><path class="cls-2" d="M38,33.87V45.58a5.62,5.62,0,0,0,5.62,5.62H66.38A5.63,5.63,0,0,0,72,45.58V33.87Z"></path><line class="cls-2" x1="79.47" y1="32.24" x2="79.47" y2="43.45"></line><polygon class="cls-2" points="79.47 42.72 77.53 43.39 77.53 49.17 79.47 49.17 81.4 49.17 81.4 43.39 79.47 42.72"></polygon><path class="cls-1" d="M22,52.84s10.45-1.64,15.65,2.3,8.13,5.12,16,4.85c6.23-.22,5.68,7.61,5.68,7.61H35.65"></path><rect class="cls-2" x="12.26" y="49.78" width="11.44" height="26.6" rx="2.13"></rect><polygon class="cls-3" points="40.68 37.84 56.29 45.38 72.01 43.09 72.01 37.01 40.68 37.84"></polygon><polygon class="cls-2" points="55.02 42.16 22.3 32.24 55.02 22.33 87.74 32.24 55.02 42.16"></polygon></g></svg>